<svg version="1.1" id="Layer_1" xmlns="http://www.w3.org/2000/svg" xmlns:xlink="http://www.w3.org/1999/xlink" x="0px" y="0px"
	 width="100%" viewBox="0 0 896 720" enable-background="new 0 0 896 720" xml:space="preserve">
<path fill="#000000" opacity="1.000000" stroke="none" 
	d="
M572.468628,721.000000 
	C569.418030,715.623718 564.703125,712.794128 559.253601,711.743958 
	C554.493103,710.826599 550.340759,708.969971 546.700989,706.079712 
	C542.876465,703.042847 538.908569,702.003113 534.202393,703.210999 
	C532.161743,703.734741 529.688538,704.581421 528.482178,701.939270 
	C527.308472,699.368713 526.235413,696.360107 527.540588,693.736206 
	C529.384033,690.030029 531.778870,694.275330 534.775391,693.686340 
	C532.742188,688.589050 532.653320,682.547058 527.464722,679.467163 
	C523.810547,677.298157 519.439514,677.322449 515.332397,679.477173 
	C516.391846,682.674927 518.877258,681.754578 520.584900,682.298523 
	C523.385010,683.190613 524.968567,685.080261 524.779785,687.765869 
	C524.544373,691.113342 521.624268,689.843201 519.669678,689.967468 
	C515.269165,690.247192 511.705627,690.419861 512.317810,683.694397 
	C512.787476,678.534851 507.153320,677.770752 503.532104,677.708191 
	C500.561157,677.656860 497.391968,675.182190 494.956421,677.015747 
	C492.008911,679.234741 495.701965,682.337891 495.155609,685.285645 
	C494.652679,687.999268 494.362152,689.432495 491.066193,689.384155 
	C487.974792,689.338745 484.867920,690.345703 481.383972,690.944824 
	C481.000061,691.000000 481.019165,691.018188 481.019165,691.018188 
	C480.874695,684.393311 486.266418,681.630005 490.546051,678.267700 
	C483.488220,669.709595 422.144897,672.056946 401.872833,681.315247 
	C402.780396,682.748840 405.050262,682.849426 405.064667,685.228821 
	C405.093964,690.065796 408.383026,690.998352 412.563232,691.059082 
	C419.349213,691.157715 423.189972,697.142212 420.810608,703.503662 
	C420.752655,703.658630 420.750854,703.865601 420.645050,703.967285 
	C417.168274,707.308594 413.080963,704.446899 409.307465,705.013733 
	C407.036102,705.354858 406.187653,703.544983 406.122009,701.453064 
	C406.111542,701.120056 406.103668,700.786865 406.094025,700.453796 
	C405.860931,692.416382 407.064575,690.653931 396.612640,690.898560 
	C395.131714,690.933228 393.359375,690.991272 392.779572,689.258972 
	C392.191223,687.501343 393.358154,686.074707 394.426971,684.781433 
	C395.455750,683.536560 397.749298,683.884094 398.462402,680.734131 
	C393.654114,682.507690 388.807770,680.217224 384.721008,682.004883 
	C381.327850,683.489197 379.828522,687.646240 378.583282,691.796692 
	C380.686523,691.796692 382.592041,691.669495 384.472717,691.831238 
	C386.490479,692.004761 389.357025,690.308350 390.342804,692.917725 
	C391.631561,696.329163 391.877991,700.229126 390.342804,703.654297 
	C389.177002,706.255310 381.031219,704.899719 378.210846,701.741028 
	C377.124146,700.523987 376.302002,699.070679 375.137360,697.408081 
	C367.332275,700.920898 360.172913,705.510742 352.092285,708.173340 
	C342.464172,711.345825 332.688202,712.297546 322.629639,711.787415 
	C299.434113,710.611023 279.116455,700.616089 258.502136,691.351196 
	C248.386902,686.804993 237.292404,686.005249 226.486145,684.219238 
	C225.232361,684.012024 224.438965,684.609558 223.661606,685.737915 
	C222.117828,687.978699 221.983536,687.886169 218.415070,687.455505 
	C217.397476,685.553772 220.994690,685.782349 219.836319,683.642883 
	C216.436096,681.305054 216.173691,686.167297 213.570007,686.911987 
	C213.897079,682.679749 211.786240,682.009094 207.976746,681.512573 
	C194.296463,679.729492 180.249939,679.131775 167.938354,671.581787 
	C159.257507,666.258301 155.527435,657.553589 153.654510,648.491577 
	C152.705017,643.897461 155.739197,638.571594 156.518478,633.506653 
	C157.607559,626.428162 160.522522,619.792847 161.018356,612.553040 
	C161.576630,604.401611 160.517426,596.408081 159.730194,588.359314 
	C158.509430,575.878113 156.171432,563.299683 163.491470,551.618042 
	C166.909592,546.163269 170.776337,541.413330 176.822510,538.687805 
	C182.866501,535.963257 188.583450,532.670349 195.154312,530.974731 
	C201.213989,529.410889 206.537720,526.355591 211.208908,521.535889 
	C218.070404,514.456299 223.195206,506.104370 229.678238,498.804718 
	C230.364151,498.032410 231.079453,496.907440 230.430847,496.102112 
	C227.499725,492.462494 227.343597,487.710938 225.278046,483.779388 
	C223.095062,479.624268 219.086456,481.737183 215.841660,481.691193 
	C213.247040,481.654388 211.671326,483.197693 211.252686,486.006592 
	C210.283325,492.510834 212.098495,494.976685 218.643799,496.092010 
	C220.837067,496.465698 223.716721,496.114319 224.780548,498.646301 
	C225.902832,501.317383 223.418137,502.811737 221.954788,504.544312 
	C221.094696,505.562622 220.162735,506.523499 219.346878,507.575195 
	C217.802933,509.565521 215.910553,510.847534 213.323685,510.164978 
	C210.428848,509.401154 211.138901,506.838470 210.926834,504.778015 
	C210.548691,501.103851 210.605774,497.436981 205.298920,496.964966 
	C197.195587,496.244202 193.178085,501.295837 196.367996,508.996033 
	C197.926010,512.756958 201.726364,511.641815 204.705215,511.938568 
	C209.576309,512.423828 210.833923,514.301941 208.695129,518.674072 
	C207.162872,521.806335 204.340988,521.580872 201.375793,521.433228 
	C198.646347,521.297363 197.250900,520.570007 196.683075,517.608643 
	C195.493225,511.403229 189.135513,508.670776 183.678558,511.944672 
	C179.916870,514.201538 181.341843,518.158569 181.240967,521.518127 
	C181.157578,524.294617 182.717087,525.760864 185.442673,526.162048 
	C187.843246,526.515503 190.223434,527.007446 192.844666,527.480042 
	C187.987701,532.132812 185.240158,532.136963 180.729828,527.791443 
	C176.892609,524.094421 167.559189,526.239258 165.678635,531.250244 
	C162.619049,539.402893 161.017487,540.488831 153.459824,539.535217 
	C151.756454,531.413452 153.070877,528.804932 160.649628,526.588501 
	C163.905655,525.636292 165.528427,523.667786 165.611389,520.572632 
	C165.772125,514.575439 168.382690,511.341766 174.643204,511.325989 
	C179.948944,511.312592 180.561523,507.429138 180.716431,503.381744 
	C180.861679,499.586517 180.041321,496.579346 175.558517,495.548676 
	C173.579239,495.093597 170.348419,495.917236 169.921326,492.600983 
	C169.470749,489.102264 170.311127,485.134888 173.408188,483.802521 
	C179.243042,481.292358 181.347717,477.027679 182.375305,471.289917 
	C182.892731,468.400818 185.779358,467.255554 188.540527,466.964417 
	C194.053818,466.383087 196.171677,463.512756 196.070694,457.975189 
	C195.948013,451.246338 196.265427,451.240570 203.005157,450.960480 
	C209.366196,450.696045 210.630173,449.290894 210.549026,442.574005 
	C210.491196,437.789093 208.884766,436.569366 203.121368,435.986298 
	C200.824707,435.753967 197.332062,437.715729 196.495132,433.641479 
	C195.717224,429.854370 198.778427,423.499878 202.189972,422.975677 
	C209.572159,421.841339 211.851746,417.672974 211.145782,410.809479 
	C210.803207,407.478973 212.681458,406.189697 215.978790,405.970581 
	C224.531021,405.402374 224.606979,405.305450 226.269653,396.823578 
	C226.894348,393.636871 228.165939,391.961670 231.723282,391.610443 
	C240.209641,390.772583 240.421402,390.621765 241.882629,382.319733 
	C242.664886,377.875305 245.424881,377.094574 249.003708,377.095184 
	C251.495789,377.095642 254.395477,376.972717 254.843292,380.350433 
	C255.364304,384.280273 254.306763,388.513428 250.276321,389.308563 
	C243.084946,390.727264 240.501053,394.546021 240.965500,401.484528 
	C241.250336,405.740021 237.787369,405.958923 234.760239,406.283173 
	C230.358902,406.754669 226.663666,407.666656 226.400269,413.350311 
	C226.179321,418.118011 227.344009,419.914612 232.229095,420.849884 
	C234.781204,421.338501 238.365845,420.025452 239.288605,423.922668 
	C239.863922,426.352448 235.093063,434.178345 232.876862,435.050232 
	C224.395111,438.387329 223.384018,445.804047 230.770142,451.603241 
	C232.414322,452.894165 231.898468,455.554565 234.738281,456.397369 
	C235.695160,451.914459 236.779068,447.533936 237.552704,443.099274 
	C242.784210,413.111237 255.649078,386.194031 270.756378,360.165161 
	C277.695435,348.209625 284.656555,336.258667 292.957520,325.182556 
	C297.239899,319.468536 302.317200,314.331085 306.393097,308.485352 
	C315.681244,295.164062 326.289337,282.777374 334.113800,268.403290 
	C338.976929,259.469391 343.732422,250.559174 347.288300,240.995590 
	C349.902374,233.964966 351.188080,226.715866 352.812286,219.663818 
	C350.073120,218.240677 350.100037,220.991302 348.756348,221.261505 
	C347.207642,220.469131 347.761536,212.684891 349.703400,212.290268 
	C356.687225,210.871033 355.083618,204.855164 355.621338,200.738724 
	C356.135712,196.801224 357.865845,192.798828 357.414917,189.071411 
	C356.134949,178.490952 358.175873,167.528351 353.917755,157.287659 
	C353.620270,156.572266 353.310394,155.416031 353.657654,154.945648 
	C358.649078,148.184082 354.554993,141.597076 352.683624,135.426224 
	C350.975464,129.793533 351.621552,125.229279 353.065552,119.683922 
	C355.391449,110.752068 355.724579,101.300728 356.892120,92.067902 
	C359.320007,72.867805 364.239410,54.629726 376.055145,38.731453 
	C383.649170,28.513559 393.325928,21.362667 405.093781,16.855989 
	C406.277557,16.402641 407.596619,15.763391 408.901764,16.793966 
	C409.717834,18.547634 408.690186,19.738342 407.450531,20.574209 
	C403.171082,23.459724 402.306519,27.718702 402.562958,32.396381 
	C402.715424,35.177746 401.754791,37.660347 399.493622,38.822990 
	C394.170441,41.560059 391.225708,46.417347 387.765533,50.842670 
	C385.520233,53.714310 383.418854,56.698288 381.243927,59.625187 
	C379.313599,62.222885 378.091156,64.830956 378.597137,68.372490 
	C379.071655,71.693703 377.095703,74.789619 375.981140,77.895630 
	C374.833191,81.094711 374.634460,84.038986 376.627716,86.935585 
	C377.003174,87.481186 377.509979,88.086540 377.549225,88.690773 
	C378.084473,96.927956 384.207489,97.972282 390.440216,98.512367 
	C399.552765,99.301994 407.766357,102.172493 415.791962,106.689949 
	C426.434052,112.680176 440.132538,110.680946 448.960693,102.294495 
	C455.153625,96.411415 463.186737,93.775604 470.004211,89.057022 
	C472.264801,87.492386 475.173096,87.764450 477.807556,87.782806 
	C486.697327,87.844757 495.705078,89.057732 503.498199,92.937439 
	C509.726440,96.038078 514.312927,102.121124 516.807556,109.104568 
	C518.827698,114.759872 521.189819,120.256363 523.757812,125.687531 
	C527.728943,134.086166 526.246582,143.023926 525.654419,151.769196 
	C525.160522,159.062561 524.414673,166.375534 522.413818,173.474487 
	C521.844727,175.493500 522.361755,177.383118 523.143433,179.296249 
	C528.171326,191.601273 529.750549,204.114838 526.844604,217.348511 
	C525.146362,225.082306 524.477905,233.161346 526.216858,241.127945 
	C526.532593,242.574097 526.806335,244.307358 527.745178,245.292938 
	C532.626648,250.417480 532.662354,257.091522 533.841064,263.386139 
	C534.676392,267.846863 535.855835,272.128815 538.299866,276.015656 
	C539.088928,277.270508 539.922668,278.657593 540.149353,280.077759 
	C541.086365,285.949219 541.639465,291.663574 547.197449,295.765411 
	C549.260803,297.288208 548.835266,301.338379 549.159363,304.325653 
	C549.674988,309.077087 550.818115,313.490631 555.243958,316.353546 
	C556.267151,317.015442 557.282715,318.365845 557.470642,319.533264 
	C558.786926,327.708710 564.575195,332.908783 569.921265,338.304901 
	C572.918091,341.329803 575.297363,344.599060 576.959412,348.471954 
	C578.630005,352.364532 581.156128,355.305908 584.815918,357.784332 
	C588.523071,360.294861 591.029663,364.470459 590.323364,369.289429 
	C588.720093,380.228699 588.312927,391.254364 589.131287,402.182770 
	C589.755493,410.519287 590.820251,418.946838 594.216736,426.906281 
	C597.757141,435.202881 597.920471,444.080658 596.937622,452.952271 
	C596.624756,455.775696 596.502136,458.540588 596.825439,461.391846 
	C597.200256,464.696960 595.794373,467.511444 593.537720,469.977722 
	C586.614319,477.544342 586.229492,486.372589 588.765442,495.715424 
	C589.264832,497.555420 590.213623,499.329803 591.916443,500.043793 
	C596.262451,501.865936 596.830688,505.449524 596.997070,509.451050 
	C597.397095,519.073547 599.643127,521.170349 609.305481,523.202759 
	C614.506287,524.296814 619.530457,525.397400 624.943420,525.184326 
	C631.251831,524.936096 636.979187,523.770264 642.536316,520.533386 
	C648.946655,516.799561 656.304138,515.106079 662.220581,509.999664 
	C674.055054,499.785522 681.264038,486.628937 687.756042,472.881836 
	C688.985901,470.277557 688.991760,467.374603 688.982300,464.530792 
	C688.961670,458.350586 689.456421,452.197418 690.546631,446.131409 
	C691.271423,442.098572 690.738037,438.436981 688.394409,435.190582 
	C685.550537,431.251221 684.419617,426.824951 683.889221,422.127808 
	C683.118164,415.300201 681.150085,408.955078 678.173462,402.633606 
	C674.579102,395.000305 672.568909,386.632507 669.682007,378.651733 
	C666.188293,368.993317 660.660828,360.505981 654.050049,352.710541 
	C647.509216,344.997559 643.125000,335.888458 639.238342,326.826599 
	C634.348389,315.425629 626.506165,306.580811 618.184143,298.024475 
	C609.876953,289.483398 603.222412,279.751038 596.634705,269.985504 
	C590.027954,260.191650 583.519531,250.408295 574.467712,242.642960 
	C571.512329,240.107651 569.745544,237.051224 570.027954,233.067673 
	C570.436340,227.307205 568.798584,221.838440 567.714661,216.293167 
	C567.074097,213.016083 565.320129,210.463623 562.327393,208.864929 
	C560.233887,207.746613 559.595642,206.346451 560.640625,203.977539 
	C561.644348,201.702316 562.106201,199.170547 561.910278,196.643677 
	C560.776184,182.013580 562.491211,167.401962 562.069458,152.758667 
	C561.594666,136.273575 560.757629,119.945061 557.871826,103.608582 
	C555.109070,87.968575 549.731689,73.129417 545.766724,57.881943 
	C544.122070,51.557541 538.676453,46.316265 535.747314,40.204784 
	C532.771851,33.996490 526.982849,29.216156 526.159241,20.932800 
	C530.332825,23.299303 534.436768,24.513327 537.460327,27.644506 
	C548.179199,38.744938 554.915039,52.201271 560.418884,66.416641 
	C565.201782,78.769867 566.109436,92.041801 569.776062,104.648216 
	C570.315674,106.503273 568.647583,108.633072 571.207092,110.972366 
	C573.286865,106.021965 577.772888,106.359467 581.907654,105.792221 
	C584.491211,105.437790 585.871399,103.849480 585.592224,101.338692 
	C585.207336,97.876053 586.231384,93.662323 581.765930,91.906029 
	C580.082092,91.243782 578.228577,90.939079 576.422485,90.677322 
	C572.832886,90.157104 571.418884,88.024246 571.109253,84.560585 
	C570.384094,76.449837 570.949524,75.621758 579.232178,75.844322 
	C583.414062,75.956696 585.869141,75.051430 585.836365,70.163902 
	C585.790955,63.391613 584.763245,61.625645 579.384521,61.303394 
	C576.889954,61.153934 574.389099,61.109108 571.445312,61.006699 
	C570.999512,60.996552 571.030884,61.024376 571.030884,61.024376 
	C570.967346,59.368309 570.876038,57.712765 570.845032,56.056084 
	C570.675415,46.999130 570.670288,46.987774 561.628418,45.880531 
	C556.752136,45.283401 555.681580,42.906212 555.837952,35.239071 
	C555.931946,30.623951 558.783569,30.840761 561.878601,30.877314 
	C563.535767,30.896885 565.193848,30.821077 566.851624,30.814983 
	C569.495483,30.805264 570.837463,29.479155 570.875427,26.850811 
	C570.923340,23.535875 570.944275,20.220551 570.988647,16.452435 
	C571.000366,15.999475 570.975891,16.024597 570.975891,16.024597 
	C572.969666,16.077051 574.979370,15.986710 576.954407,16.206964 
	C585.020935,17.106524 585.657471,17.567366 586.021423,25.566072 
	C586.212952,29.775682 588.105469,30.859909 591.932007,30.955616 
	C600.840332,31.178432 601.068604,31.296680 601.913818,40.369068 
	C602.387756,45.455837 605.759277,44.858295 609.047058,45.064598 
	C612.556641,45.284821 615.472229,44.752483 615.682495,40.375065 
	C615.818176,37.550648 615.907410,34.723995 616.008728,31.449562 
	C616.000000,31.000784 615.980591,31.021000 615.980591,31.021000 
	C618.110474,31.373901 620.228455,31.888840 622.372681,32.047531 
	C627.572144,32.432323 631.335815,34.036991 631.418457,40.241375 
	C631.472412,44.288609 634.018250,45.801163 638.048157,45.918285 
	C645.560608,46.136627 648.394836,51.446823 644.994751,58.309853 
	C643.898071,60.523418 641.695374,60.221241 639.852539,60.776161 
	C637.118225,61.599525 633.003113,59.613724 631.765137,63.040134 
	C630.378052,66.878738 630.698669,71.226738 632.214417,75.247597 
	C632.603699,76.280197 633.762939,77.068657 633.002502,78.877045 
	C629.750305,75.517921 625.646790,76.106270 621.646057,76.207626 
	C618.370056,76.290619 617.003601,77.996147 616.895569,81.282532 
	C616.636353,89.171539 616.890076,89.596268 624.784180,91.268936 
	C627.289917,91.799873 630.004822,92.307419 629.272034,95.877754 
	C628.557251,99.360519 631.150208,104.474442 624.824097,105.338158 
	C624.494690,105.383133 624.169922,105.461716 623.842590,105.522278 
	C615.891113,106.993546 614.938538,108.795525 616.816162,116.817299 
	C617.688660,120.545029 620.384949,120.672302 623.132202,121.282043 
	C628.170288,122.400223 631.611572,128.579208 629.127869,133.028702 
	C627.499329,135.946167 623.796387,134.762253 620.945190,135.007874 
	C618.905457,135.183609 617.302673,134.563004 617.092651,132.157074 
	C617.005798,131.162247 616.930786,130.164520 616.791382,129.176437 
	C615.774841,121.970917 612.067505,119.505997 604.956238,121.352577 
	C604.186340,121.552490 603.106384,121.891670 602.838867,122.473640 
	C601.235474,125.961479 601.595703,129.696426 602.521973,133.193924 
	C603.235413,135.887787 606.110413,135.761703 608.408997,135.950363 
	C615.758606,136.553589 615.895935,136.526718 616.196106,144.045898 
	C616.381592,148.691940 618.020325,151.283508 623.106934,150.852539 
	C625.414246,150.657028 627.761597,150.934235 630.545410,150.999756 
	C631.000000,151.002518 630.979919,150.986649 630.979919,150.986649 
	C630.994263,153.151382 630.985046,155.316559 631.027283,157.480759 
	C631.166199,164.606979 635.924988,167.692566 642.685974,165.181686 
	C645.444458,164.157211 645.688599,161.933746 645.919983,159.560898 
	C646.215271,156.532089 646.937866,153.783142 650.871460,154.124466 
	C653.706421,154.370468 657.133484,154.588043 657.537048,158.055374 
	C657.926819,161.403549 656.914673,164.641785 652.679626,165.629532 
	C650.552734,166.125595 647.492310,165.416840 646.636658,168.226517 
	C645.613770,171.585831 645.290955,175.351776 646.608398,178.557739 
	C648.268799,182.598373 652.384583,180.734375 655.494507,180.930984 
	C658.526794,181.122681 660.639160,179.710663 660.910645,176.384338 
	C661.239258,172.358154 662.879333,169.239273 667.108459,168.373795 
	C669.502991,167.883759 672.434753,167.292679 673.570740,170.386795 
	C674.675903,173.397079 674.090942,176.356613 671.317017,178.424072 
	C670.542480,179.001404 669.522156,179.283508 668.579773,179.595871 
	C661.225342,182.033508 659.365173,185.530716 661.076111,193.293213 
	C661.608276,195.707581 663.115112,196.543610 665.270081,196.811279 
	C668.624512,197.227936 671.910034,196.685791 675.595520,196.048645 
	C675.999084,196.001724 675.971191,195.976120 675.971191,195.976120 
	C675.792542,197.462173 675.640686,198.952042 675.430786,200.433670 
	C674.163635,209.376404 674.164124,209.400253 665.140564,211.215057 
	C663.360596,211.573044 661.785522,212.258057 661.493286,214.111176 
	C660.926697,217.703369 659.785950,221.825806 662.290283,224.701065 
	C664.533203,227.276138 668.339661,226.609482 671.724731,226.180359 
	C675.184265,225.741776 675.859558,223.464584 676.384949,220.682693 
	C677.007507,217.386429 677.578674,213.919983 682.071045,213.686508 
	C684.417297,213.564575 687.538330,211.807846 688.575256,215.130203 
	C689.647949,218.567429 689.033997,222.130066 685.508118,224.363174 
	C685.095581,224.624466 684.586792,224.740875 684.114197,224.899185 
	C675.281494,227.857635 673.767944,230.659286 675.469238,240.616669 
	C672.278015,241.050644 669.455505,241.070938 666.634399,241.147141 
	C661.149414,241.295288 660.985291,245.092346 661.006470,249.190033 
	C661.026367,253.058395 661.538940,255.860748 666.563721,256.034485 
	C675.214844,256.333618 676.812378,255.124710 676.700317,246.395218 
	C676.677124,244.585632 676.226746,242.781555 675.973267,240.974930 
	C679.039612,241.689423 682.076172,242.605408 685.180359,243.063370 
	C688.477417,243.549789 689.365051,245.422516 688.837646,248.314987 
	C688.341370,251.036407 690.139160,254.665787 684.830322,255.216476 
	C676.674133,256.062561 676.481873,256.405334 675.429260,264.272919 
	C674.896790,268.252380 673.421143,269.921997 669.297791,270.412170 
	C660.974854,271.401581 661.007629,271.675720 661.004089,280.097534 
	C661.003357,281.760803 661.000244,283.424072 660.999451,285.541809 
	C661.000732,285.996277 661.022766,285.972473 661.022766,285.972473 
	C660.856140,285.972504 660.689514,285.974670 660.522949,285.972198 
	C644.283264,285.732971 646.940247,286.419220 644.846924,299.579224 
	C641.826660,298.960907 638.638000,298.767151 635.835693,297.625275 
	C631.771606,295.969330 632.735535,291.606567 632.427551,288.430115 
	C632.130249,285.363831 635.425232,286.065552 637.426208,285.970337 
	C644.739380,285.622314 647.576294,281.677307 645.458801,274.535950 
	C644.181335,270.228027 640.447998,270.628021 637.229736,270.704498 
	C634.272095,270.774811 630.943237,271.043701 631.051331,275.439972 
	C631.067627,276.103851 631.099487,276.804260 630.920654,277.429565 
	C630.206116,279.928741 632.696777,284.276733 627.800720,284.412781 
	C621.263367,284.594452 617.757080,281.052673 617.940674,275.741455 
	C618.079468,271.726257 620.853516,271.448242 623.761719,271.090393 
	C626.278442,270.780701 629.506836,271.665894 630.337891,268.045441 
	C631.130249,264.593781 631.589722,260.796234 628.806091,258.131073 
	C626.218811,255.653931 622.640259,255.897980 619.325012,256.850616 
	C616.488098,257.665771 616.510010,260.224060 616.207214,262.539886 
	C615.913330,264.787292 616.346497,267.581909 613.495972,268.424072 
	C610.752441,269.234619 608.786926,267.344482 606.960632,265.594543 
	C606.120728,264.789734 605.298157,263.945526 604.596436,263.021423 
	C601.462219,258.894012 602.047302,257.622192 607.176086,256.717224 
	C611.164795,256.013458 616.234497,257.031616 616.031372,250.097397 
	C615.793640,241.980682 614.138123,239.951584 605.872864,240.637909 
	C602.195068,240.943298 601.360901,239.796417 601.332275,236.249542 
	C601.258911,227.166092 600.909790,226.880478 591.909607,225.901901 
	C588.525757,225.533981 586.851196,224.146622 586.501648,220.690460 
	C586.017639,215.905533 585.529785,211.686142 579.196533,209.894577 
	C575.429810,208.829025 575.956970,203.038055 575.802002,199.150452 
	C575.674377,195.948975 578.973755,196.608490 580.774963,196.261978 
	C586.501526,195.160355 585.814392,190.922577 585.788879,186.957184 
	C585.762207,182.805084 583.711548,180.333206 579.461975,180.156509 
	C577.437500,180.072342 575.569946,179.585983 573.067261,178.469009 
	C573.446106,190.506332 571.982178,202.008331 575.138855,213.676529 
	C580.058899,231.862564 589.515625,247.694885 599.686157,263.031311 
	C607.457458,274.749939 617.080078,285.237854 625.837280,296.306335 
	C638.014099,311.696991 649.738953,327.389008 660.185547,344.054108 
	C672.183899,363.194641 681.673035,383.466309 688.571960,404.897675 
	C691.878601,415.169983 693.641174,425.904083 695.153137,436.621124 
	C695.378540,438.218933 695.019958,440.038208 696.991699,440.820984 
	C698.694092,440.635773 698.727173,438.895172 699.710266,438.072205 
	C700.985168,437.004852 702.474426,436.848297 703.950256,437.215454 
	C705.704468,437.651917 705.271240,439.241180 705.392578,440.525604 
	C705.564575,442.347443 705.866638,444.157654 706.016296,445.980774 
	C706.278809,449.179260 707.920105,450.821533 711.172180,450.807098 
	C712.337646,450.801941 713.509338,450.966431 714.668091,450.893494 
	C719.258362,450.604614 721.220825,452.479218 721.204529,457.302246 
	C721.179077,464.843933 721.442749,464.844788 729.021545,466.735229 
	C733.541809,467.862732 737.321899,475.199066 735.560242,479.363434 
	C734.983337,480.727325 733.829102,480.772980 732.655884,480.783142 
	C731.328491,480.794617 729.992249,480.618774 728.673950,480.715729 
	C721.291504,481.258789 720.455322,482.444183 721.257935,490.145996 
	C721.603760,493.464874 723.126038,495.192841 726.461060,495.749573 
	C736.089600,497.356995 736.077698,497.424347 735.968323,507.094788 
	C735.957031,508.094482 735.960510,509.094391 735.978210,510.546936 
	C735.999329,510.999725 736.025818,510.972290 736.025818,510.972290 
	C732.861572,510.999329 729.678650,510.819916 726.537659,511.104065 
	C722.331604,511.484619 721.033813,509.681488 720.982483,505.641602 
	C720.876099,497.281982 719.139465,495.964508 710.812500,496.183472 
	C707.742981,496.264160 706.428772,497.450745 705.794250,500.426056 
	C703.596191,510.733307 704.290405,511.816650 714.815918,511.736359 
	C718.673950,511.706940 721.176208,512.236084 721.175293,517.018982 
	C721.173889,524.634033 720.137329,525.633179 711.252014,524.078613 
	C717.000000,539.565308 716.561646,556.667480 726.533386,570.377686 
	C730.138611,575.334473 734.327881,579.869446 738.000000,584.816956 
	C743.155212,591.762756 746.105469,599.755249 748.351929,607.832031 
	C749.481567,611.893372 746.901794,616.620667 744.784363,620.389832 
	C743.090271,623.405334 741.762634,626.648987 739.773132,629.158142 
	C739.903503,630.530640 740.680420,630.822754 741.464600,631.135498 
	C744.433167,632.319885 746.859253,634.171936 746.823914,637.615601 
	C746.787903,641.128113 743.784607,642.601929 741.217529,644.077942 
	C738.630005,645.565552 737.096680,644.663147 737.054810,641.572937 
	C737.010742,638.325562 737.465088,635.017883 735.994446,630.927063 
	C725.043945,639.234253 712.502014,643.479248 700.042969,651.291809 
	C704.790588,650.671692 705.078674,652.957581 705.550049,655.469543 
	C706.572693,660.919495 708.511414,661.636230 716.633606,660.977234 
	C721.476440,660.584229 720.735352,657.151367 721.062500,654.092468 
	C721.330078,651.591248 720.041016,648.267639 723.360657,647.092285 
	C726.988159,645.807922 731.401794,645.345581 734.538818,646.969482 
	C737.726746,648.619690 735.707214,653.032898 735.834961,656.229065 
	C735.915527,658.246704 734.850647,659.733459 732.612061,659.969666 
	C731.618835,660.074463 730.615540,660.097595 729.627380,660.234375 
	C721.108521,661.413086 720.203796,662.698792 721.252014,671.597656 
	C721.506104,673.754822 722.153381,675.436646 724.338623,676.264221 
	C728.044800,677.667786 731.230042,680.157349 730.555786,684.265930 
	C729.840820,688.622925 726.113159,690.609863 721.459717,690.617615 
	C722.168762,686.803345 722.353943,683.361023 721.359192,679.900513 
	C720.091553,675.490845 716.403809,676.112305 713.162903,676.125732 
	C710.326416,676.137451 707.430481,676.281494 706.464111,679.926636 
	C704.724548,686.488342 707.307861,690.312195 714.046326,690.802246 
	C716.364868,690.970886 718.699219,690.923035 721.026306,690.974121 
	C721.078064,692.470398 721.190857,693.967407 721.171204,695.462769 
	C721.073853,702.882507 716.972107,706.231506 709.529724,705.078552 
	C706.007141,704.532898 706.373230,701.716675 706.098816,699.325378 
	C705.708130,695.921326 705.428955,692.735596 700.955078,691.986633 
	C693.666809,690.766541 691.267273,692.315674 691.232666,699.671204 
	C691.210510,704.385742 689.721741,706.458618 684.760132,705.796326 
	C682.169678,705.450500 679.468750,705.932068 676.410156,706.020813 
	C676.002563,706.001648 676.021667,706.020142 675.969482,705.587708 
	C675.530640,702.197693 675.435059,699.164917 674.694214,696.298889 
	C673.329651,691.020325 668.595459,691.759033 664.829285,691.736206 
	C660.721375,691.711426 661.249207,695.265747 661.172607,698.059082 
	C661.099731,700.714233 661.038879,703.369629 660.984619,706.013062 
	C660.996521,706.001160 661.019348,705.976196 660.598877,705.963379 
	C653.082703,705.376343 645.423767,705.584412 645.372375,695.241516 
	C645.371521,695.068542 644.865234,694.898132 644.456787,694.638977 
	C643.933899,694.860352 643.209534,694.976929 642.750854,695.389099 
	C631.530945,705.469971 618.547424,712.060913 603.912781,715.697083 
	C601.209351,716.368713 597.682556,717.148743 597.000000,721.000000 
	C588.979065,721.000000 580.958191,721.000000 572.468628,721.000000 
M376.122162,136.896561 
	C376.162354,137.893906 376.305908,138.899734 376.224884,139.887131 
	C375.870087,144.209747 377.836426,149.664673 370.734833,150.699951 
	C369.308441,150.907883 369.142029,152.745300 369.120850,154.072372 
	C368.975586,163.164841 372.901611,170.830368 378.003723,177.921555 
	C379.536926,180.052475 382.369934,180.683121 384.654175,178.639465 
	C386.709656,176.800461 391.220398,175.641693 389.285889,172.062241 
	C387.472992,168.707779 385.760559,165.076447 383.278534,161.921799 
	C381.556641,163.075912 380.677063,166.560516 378.532654,164.531204 
	C374.987732,161.176559 378.181549,157.379181 378.450592,153.461670 
	C380.161896,154.601028 379.746918,156.797318 381.985992,157.100998 
	C383.978851,153.461060 382.365540,149.418213 383.007111,145.647049 
	C384.477600,137.003357 384.506714,137.008316 376.042450,135.183548 
	C376.295990,132.368378 376.528442,129.551117 376.807892,126.738525 
	C377.237732,122.412086 379.435028,121.160149 385.575256,121.106949 
	C389.450958,121.073380 390.087646,123.023666 390.338684,126.402161 
	C390.536926,129.070053 389.688477,133.099335 393.651337,133.869064 
	C398.965088,134.901184 400.659119,138.873611 402.596649,142.992310 
	C405.070770,148.251617 404.632751,154.353745 407.512909,159.499252 
	C408.878998,159.513199 410.330750,158.721054 409.656921,157.588806 
	C406.444672,152.191238 410.671570,152.349945 413.845123,151.494064 
	C415.830017,150.958755 418.773315,151.434326 419.244110,148.753281 
	C420.117523,143.779129 421.019592,138.640030 417.887054,133.997803 
	C406.810577,137.104507 406.455048,134.144913 406.568481,126.209732 
	C406.589569,124.732719 407.097717,123.130898 408.742126,122.560043 
	C410.547119,121.933418 411.381317,123.397346 412.388641,124.509064 
	C413.341034,125.560104 413.548004,127.310165 416.120300,127.906487 
	C414.838531,124.736603 413.916260,121.969177 412.636993,119.377991 
	C407.628204,109.232422 393.263153,101.119881 381.437134,110.733795 
	C375.573639,115.500496 372.711975,121.995155 370.467041,128.767105 
	C368.392334,135.025391 369.194519,135.739334 376.122162,136.896561 
M456.535461,115.591530 
	C457.816162,114.550133 459.053680,113.449310 460.387054,112.480354 
	C462.776520,110.743904 465.113190,110.804344 465.419159,114.110146 
	C466.041443,120.832634 470.392120,121.283791 475.561432,120.951736 
	C477.368622,120.835640 479.192719,120.982300 481.000000,120.999855 
	C481.000000,120.999855 480.990631,120.990280 481.019806,121.783119 
	C481.824524,125.036324 478.938965,126.378975 476.651550,128.790222 
	C481.573853,129.014999 486.188263,128.090469 489.046326,131.899353 
	C491.604584,135.308701 494.034332,138.755905 495.259674,143.126328 
	C496.605804,147.927399 494.892548,152.953583 497.304321,158.321930 
	C497.969177,151.949646 501.997498,151.546875 506.348083,152.352310 
	C509.763306,152.984543 509.003723,156.016464 509.131012,158.443542 
	C509.315735,161.966400 508.404907,164.661682 504.481171,165.548294 
	C500.477020,166.453064 497.002441,166.483719 496.052643,159.714813 
	C494.506897,163.722916 493.578735,166.129562 492.693573,168.424805 
	C494.054321,169.820175 496.050049,170.042404 495.836975,172.333450 
	C495.363953,177.420029 500.289062,176.826233 502.901703,178.421631 
	C505.173004,179.808640 507.599915,178.831711 509.415649,176.482941 
	C511.059998,174.355911 512.608398,172.212402 513.605408,169.726288 
	C520.089844,153.557404 520.118286,137.570160 512.265442,121.783211 
	C506.388458,109.968559 497.580963,102.076530 484.159424,99.824043 
	C480.886200,99.274712 478.071625,100.791992 474.841797,100.610039 
	C467.826874,100.214867 457.565582,109.069427 455.407684,116.266411 
	C449.838074,121.353180 447.630676,128.152954 446.447937,135.208069 
	C445.772217,139.238663 446.292969,143.476486 446.352325,147.619919 
	C446.372498,149.025070 446.863220,150.414856 448.519867,150.469589 
	C450.194397,150.524902 450.665558,149.165024 450.819580,147.752991 
	C450.909515,146.928741 450.909454,146.094589 450.947479,145.264786 
	C451.327209,136.980667 451.903320,136.147446 460.317627,136.172806 
	C465.030792,136.187012 466.465515,134.005661 466.551697,129.891953 
	C466.678406,123.840828 465.355927,122.052452 459.414001,120.683670 
	C456.840454,120.090828 454.191559,119.683769 456.535461,115.591530 
M364.532715,329.009247 
	C356.196747,348.714417 347.607086,368.317200 339.598114,388.154388 
	C332.000824,406.971832 324.617523,425.912415 321.446381,446.139984 
	C319.613434,457.831635 317.238129,469.387390 312.153473,480.173553 
	C311.058472,482.496277 311.639435,483.887970 313.482635,485.276367 
	C319.054993,489.473877 324.473511,493.885101 330.160461,497.919098 
	C342.881531,506.942657 355.467590,516.248474 366.520050,527.187073 
	C376.758911,537.320435 385.645355,548.747986 391.117249,562.471924 
	C396.806213,576.740234 395.397491,592.893616 382.191833,603.571594 
	C379.064087,606.100586 380.884583,608.380371 382.961304,610.202698 
	C395.485413,621.192444 409.823303,628.201904 426.370026,631.215332 
	C430.943756,632.048279 435.456268,630.435120 439.371643,631.647888 
	C448.321869,634.419983 457.086121,631.639404 465.514954,630.823425 
	C482.069214,629.220947 497.546753,622.482300 512.670044,615.287048 
	C521.000854,611.323486 525.469116,605.066956 527.521423,596.563538 
	C531.967712,578.141052 533.863037,559.327271 535.970886,540.549683 
	C537.233582,529.301025 538.606628,518.059753 542.894409,507.471405 
	C550.723328,488.138580 564.283752,472.977966 578.836975,458.558990 
	C581.553833,455.867188 584.145996,453.048920 586.779358,450.273468 
	C589.622437,447.276917 590.247192,443.624817 588.541138,440.095184 
	C584.307556,431.336395 582.203674,421.865845 578.905701,412.801727 
	C572.316895,394.693237 564.005310,377.302643 556.630005,359.521210 
	C550.465271,344.658081 543.187500,330.253143 537.130493,315.349518 
	C528.307434,293.639648 520.096375,271.680084 511.727905,249.787430 
	C510.260895,245.949677 508.282623,245.044266 504.519073,246.921967 
	C492.618958,252.859161 480.553192,258.465942 468.684814,264.464386 
	C463.019196,267.327881 457.121490,269.534515 451.185638,271.651093 
	C444.425476,274.061584 437.418732,275.939972 430.198151,274.944275 
	C416.460602,273.049957 403.894287,268.071350 392.825928,259.550018 
	C391.715454,258.695068 390.855591,257.137451 388.066620,257.933807 
	C382.596466,281.790100 374.308044,305.254730 364.532715,329.009247 
M311.257233,694.242371 
	C322.380402,696.568420 333.508453,697.649231 344.685486,694.534302 
	C362.691406,689.516357 370.920135,677.580505 372.918121,659.965088 
	C373.165253,657.786560 372.771637,655.648743 371.925415,653.604553 
	C366.213013,639.805054 358.131226,627.417114 348.999908,615.708313 
	C331.349030,593.075195 315.747894,569.114746 301.870361,544.006714 
	C295.109955,531.775330 288.306152,519.591370 279.107788,508.899445 
	C271.455231,500.004303 253.139069,495.600433 244.767319,506.827332 
	C241.988510,510.553741 238.814682,513.987488 235.792633,517.530396 
	C226.793961,528.079956 217.597137,538.345703 204.173248,543.586304 
	C198.604736,545.760132 193.202148,548.367981 187.764893,550.867310 
	C178.559647,555.098572 173.355362,561.910645 174.008438,572.461914 
	C174.152374,574.787720 173.939529,577.144043 174.192657,579.453186 
	C174.953232,586.391541 176.165604,593.292603 176.647217,600.246643 
	C177.483734,612.325134 174.749741,623.954651 172.045654,635.665283 
	C168.274124,651.998779 169.919571,658.599304 187.681244,662.392090 
	C200.023834,665.027710 212.547897,666.888672 225.050247,668.681824 
	C240.423340,670.886719 255.531647,673.886353 269.960602,679.888367 
	C283.172272,685.384094 296.353699,691.028015 311.257233,694.242371 
M563.936584,566.481812 
	C563.375549,569.754028 562.856262,573.034058 562.246582,576.297180 
	C558.979980,593.781006 556.305542,611.356506 551.226318,628.500244 
	C547.459900,641.212646 543.745056,654.074280 544.177063,667.637024 
	C544.651917,682.546021 557.848694,698.923401 571.965027,703.340942 
	C581.200989,706.231201 589.746887,703.642822 598.445251,702.007385 
	C605.121216,700.752197 611.529663,698.526733 617.296265,694.473450 
	C630.411316,685.255310 641.966309,674.235168 653.788391,663.531128 
	C664.451538,653.876404 676.033020,645.612122 688.718689,638.869690 
	C699.859802,632.948181 711.333191,627.569885 722.060425,620.976501 
	C731.421143,615.222961 733.054749,608.783386 728.588318,599.884216 
	C726.641296,596.004639 724.304138,592.373840 721.618164,588.957886 
	C712.234070,577.023315 705.705444,563.682617 701.617920,549.058594 
	C699.963806,543.140442 697.867737,537.318237 695.568909,531.615112 
	C692.791443,524.724976 688.632996,518.741028 680.616821,517.650146 
	C672.205078,516.505493 664.239075,517.887085 657.151855,523.275574 
	C646.408203,531.444214 634.605347,537.499023 620.923462,538.761292 
	C610.792053,539.695984 601.477600,537.590149 593.787292,530.251221 
	C588.014832,524.742493 583.994873,518.136047 580.738159,510.963409 
	C580.012756,509.365631 579.822083,507.344391 577.432617,506.562256 
	C572.098206,511.394318 570.730225,518.090027 569.272156,524.705200 
	C566.300171,538.187988 565.348511,551.936279 563.936584,566.481812 
M480.419281,234.725021 
	C481.197235,234.434830 481.966858,234.119400 482.754425,233.858215 
	C494.338989,230.016296 504.741058,224.320618 511.953247,214.124802 
	C519.672485,203.212173 516.836426,192.711975 504.542114,187.328369 
	C486.599640,179.471481 468.976471,170.847443 450.902100,163.383301 
	C437.684906,157.925003 423.777344,157.984009 410.830658,166.327118 
	C403.232758,171.223358 397.133575,177.842239 389.930145,183.189636 
	C384.747223,187.037155 379.064606,190.279297 374.493683,194.986862 
	C370.307709,199.297958 367.485718,203.953705 369.694397,210.132278 
	C371.398529,214.899399 373.856506,219.597534 378.019623,222.364670 
	C391.859741,231.563843 404.221008,242.865555 419.088348,250.627182 
	C428.192383,255.380051 436.942902,255.166977 446.364075,251.837280 
	C458.236603,247.641220 468.685211,240.793991 480.419281,234.725021 
M246.300034,469.849609 
	C247.018051,472.411591 247.549286,475.044708 248.492188,477.521057 
	C250.577911,482.998779 253.747437,484.598450 259.589539,484.278198 
	C265.386169,483.960419 271.207703,483.472107 277.020538,484.509216 
	C290.727631,486.954834 297.637817,482.409363 301.084564,468.809235 
	C305.868103,449.934479 306.686981,430.346802 311.190002,411.454285 
	C314.026886,399.552155 302.337158,387.463226 291.515381,386.101959 
	C276.747131,384.244232 272.627838,385.379974 267.151733,394.904541 
	C259.345947,408.481201 255.142151,423.599609 248.952911,437.873444 
	C244.671432,447.747528 245.850784,458.481415 246.300034,469.849609 
M583.890869,123.695625 
	C580.902954,119.445091 573.641052,123.038704 571.463745,116.594017 
	C573.302429,134.841522 568.744507,152.913712 573.531128,171.013168 
	C574.958191,167.985428 577.227295,166.575699 579.956726,166.325134 
	C584.898010,165.871536 585.718994,162.624496 585.750122,158.621521 
	C585.782898,154.409576 584.767395,150.854614 579.839600,150.294174 
	C575.389343,149.788055 574.637451,147.089996 574.875732,143.258759 
	C575.103821,139.592133 577.161255,137.909012 580.404297,137.227768 
	C585.224304,136.215256 586.397278,133.073990 585.472900,128.702560 
	C585.164062,127.242119 584.692566,125.816048 583.890869,123.695625 
M322.642822,310.698334 
	C324.117279,317.506226 333.095795,323.908539 339.728485,322.907349 
	C342.710846,322.457184 344.424927,320.516968 345.389374,317.904999 
	C346.435364,315.072174 346.743652,312.133179 346.123535,309.101044 
	C344.923340,303.232849 340.018860,300.424164 334.490967,302.455414 
	C332.313995,303.255310 330.076843,303.898926 327.847992,304.548187 
	C325.057159,305.361023 323.155823,306.958496 322.642822,310.698334 
M308.751343,356.358734 
	C312.716553,348.432953 318.418732,341.229034 319.958282,331.060974 
	C316.609772,332.413177 315.619507,334.333435 314.621277,336.167511 
	C308.680664,347.082428 302.755066,358.005737 296.884705,368.958527 
	C295.709656,371.150848 294.783234,373.477509 293.763458,375.751770 
	C292.653503,378.227173 293.541687,380.047394 295.885742,381.005890 
	C298.439941,382.050293 298.984955,379.819061 299.667023,378.200867 
	C302.632660,371.165222 305.527588,364.099762 308.751343,356.358734 
M705.562195,663.256531 
	C701.863342,658.656738 695.979370,661.544067 691.686646,659.582764 
	C691.289185,657.039062 693.873230,656.388428 694.690613,654.095703 
	C689.291626,656.208252 684.975647,658.622009 681.201477,661.921326 
	C689.907593,660.320435 689.900940,660.321411 691.222961,669.271912 
	C691.659851,672.230042 692.510193,674.479431 696.201599,675.051819 
	C704.993896,676.415100 706.047913,675.663513 705.888550,666.581726 
	C705.873962,665.750671 705.791809,664.920837 705.562195,663.256531 
M691.987915,503.653198 
	C692.306885,503.693817 692.625854,503.734467 692.944824,503.775085 
	C692.561584,497.637054 696.556213,496.621338 701.407898,496.354675 
	C703.423157,496.243896 705.535645,495.580414 705.645020,493.015717 
	C705.771667,490.047760 705.892029,487.029572 705.498352,484.102661 
	C705.052673,480.789093 701.978943,480.572662 699.432678,479.927795 
	C697.976501,479.558990 696.066650,478.972290 695.555054,480.831268 
	C693.530212,488.189209 689.598938,495.240265 691.987915,503.653198 
M720.636108,470.265167 
	C719.076172,465.143707 714.691162,466.495209 711.101685,466.188904 
	C708.337036,465.953033 705.856384,466.734924 706.147339,470.122162 
	C706.460449,473.767700 704.144348,478.594971 709.484924,480.427155 
	C717.835938,483.292053 721.226685,480.691986 720.853699,472.096222 
	C720.839355,471.765594 720.798889,471.436066 720.636108,470.265167 
M605.397217,165.302689 
	C606.874634,165.437454 608.351562,165.675751 609.829590,165.683105 
	C612.138000,165.694595 614.900269,165.917023 615.452576,162.928192 
	C616.127991,159.273178 617.228149,155.271500 614.195251,152.124054 
	C612.262268,150.118042 603.490051,150.896820 602.063049,152.868454 
	C599.995728,155.724808 601.484863,162.888611 605.397217,165.302689 
M225.873688,427.664917 
	C225.002151,421.724243 222.987427,420.406921 216.089981,421.142487 
	C213.775085,421.389313 211.608398,421.951996 211.368881,424.648163 
	C211.069626,428.017090 209.476486,431.996582 212.860611,434.436432 
	C215.775330,436.537872 219.619019,436.442413 223.003418,435.344330 
	C226.213058,434.303009 225.619446,431.100311 225.873688,427.664917 
M211.268341,461.044464 
	C212.847565,465.632202 221.812057,468.071075 224.626740,464.444000 
	C227.058289,461.310638 226.331955,457.400360 225.380219,453.880890 
	C224.529083,450.733429 221.546173,451.198181 219.092712,451.199036 
	C212.469879,451.201355 211.381332,452.481873 211.268341,461.044464 
M577.977539,45.561569 
	C585.690979,45.881897 586.228455,45.335625 585.703491,37.655754 
	C585.647217,36.832233 585.572327,36.003475 585.415710,35.194637 
	C585.050476,33.308189 584.326782,31.460632 582.126221,31.423119 
	C578.750610,31.365574 574.819824,29.712698 572.131836,32.378216 
	C568.587463,35.892986 572.058411,44.333088 577.977539,45.561569 
M653.437683,210.798401 
	C655.874695,210.572983 658.889343,210.965256 659.970886,208.275833 
	C661.326111,204.906067 662.035767,200.923965 660.130127,197.731659 
	C658.482849,194.972183 655.017395,196.485703 652.298340,196.494751 
	C647.394043,196.511093 645.940796,199.041840 646.038025,203.767944 
	C646.135498,208.501892 647.664856,211.014114 653.437683,210.798401 
M189.354630,481.276093 
	C186.170761,481.510132 182.576309,480.541901 181.099564,484.941467 
	C178.660187,492.209106 181.349548,496.013489 188.938400,495.865967 
	C192.208069,495.802399 194.799957,495.345245 195.122833,491.191711 
	C195.664032,484.230133 194.889954,482.406128 189.354630,481.276093 
M599.879700,178.243866 
	C600.916504,176.072540 600.838013,173.744812 600.828308,171.428711 
	C600.817749,168.911606 600.237549,166.500565 597.259399,166.418503 
	C593.644531,166.318893 589.156311,164.592026 586.950012,168.868378 
	C585.372742,171.925522 585.216980,175.819275 587.065979,178.926636 
	C588.803772,181.847046 592.094482,180.723618 594.817017,180.438690 
	C596.421204,180.270782 598.151428,180.184952 599.879700,178.243866 
M592.939880,136.800446 
	C590.536377,136.626755 587.488159,135.438202 586.624146,138.840057 
	C585.737000,142.333160 585.027954,146.218582 587.415405,149.416000 
	C589.438293,152.125168 599.401489,151.357788 600.548706,148.681717 
	C602.947754,143.085648 599.821167,137.654861 592.939880,136.800446 
M659.614075,228.018448 
	C656.976257,226.044464 654.023926,226.499939 651.049805,226.828461 
	C648.819641,227.074799 646.488220,227.289917 646.303894,230.101730 
	C646.094727,233.291931 644.738098,237.096283 647.804688,239.383698 
	C650.675598,241.525085 654.470520,241.428421 657.823059,240.275391 
	C660.919373,239.210449 660.601013,236.115860 660.758484,233.510605 
	C660.857849,231.865646 660.860229,230.198517 659.614075,228.018448 
M646.149780,262.804840 
	C646.471497,265.575867 644.779358,269.378723 648.915161,270.378967 
	C652.376099,271.216003 656.558167,272.313019 659.346375,269.402466 
	C661.918884,266.717041 661.478149,262.669128 660.092407,259.447845 
	C658.353577,255.405518 654.296021,257.359680 651.195129,257.040894 
	C647.705750,256.682129 646.592285,259.005554 646.149780,262.804840 
M599.886353,198.800476 
	C597.411621,195.833389 593.976746,196.323029 590.709167,196.291931 
	C588.225708,196.268295 586.326599,197.367905 586.330933,199.997330 
	C586.336365,203.316650 584.666077,207.633331 588.528870,209.469345 
	C591.728394,210.990128 595.925964,211.023117 599.162415,209.268875 
	C602.096252,207.678680 600.674561,204.205215 600.651672,201.480957 
	C600.646240,200.835541 600.361877,200.192459 599.886353,198.800476 
M602.103149,222.242310 
	C604.137390,225.525818 608.729614,226.868225 612.809998,225.386002 
	C616.437378,224.068344 615.748718,221.036362 615.610413,218.265457 
	C615.402527,214.100418 613.705383,211.486053 609.032654,211.240570 
	C602.076965,210.875153 600.481934,213.018112 602.103149,222.242310 
M206.900269,467.120148 
	C204.916443,467.057312 202.932953,466.958313 200.948730,466.940430 
	C198.253418,466.916138 196.387238,468.094208 196.252213,470.934235 
	C196.100739,474.120148 194.783600,477.721924 198.234329,480.049896 
	C200.577866,481.630920 208.192337,480.757324 209.540207,478.990723 
	C211.672745,476.195496 210.777863,470.455688 206.900269,467.120148 
M611.417480,105.814209 
	C614.564026,106.089432 616.112793,104.417709 616.258850,101.490074 
	C616.421936,98.220680 617.073425,94.226601 613.667175,92.545959 
	C610.523804,90.995003 606.238342,89.858757 603.284668,92.563644 
	C600.658386,94.968773 601.683838,98.911079 602.634583,101.999802 
	C603.790100,105.753891 607.591003,105.224129 611.417480,105.814209 
M600.670532,54.333858 
	C600.158813,47.398350 598.113586,45.763905 590.732422,46.291630 
	C584.907471,46.708096 586.440674,51.119110 586.322571,54.510216 
	C586.201172,57.997044 587.605957,60.235783 591.580261,60.073910 
	C595.454529,59.916119 600.460999,62.010227 600.670532,54.333858 
M604.465820,181.821854 
	C600.646973,183.732727 602.247009,187.295059 602.014038,190.227737 
	C601.838074,192.442825 602.200378,194.979782 605.193054,194.794418 
	C608.574585,194.584991 612.859802,196.930862 615.097290,192.624542 
	C618.573181,185.934738 615.075562,180.706696 607.735046,181.210663 
	C606.911011,181.267212 606.095398,181.446457 604.465820,181.821854 
M595.998901,107.208115 
	C586.703308,106.645966 584.262573,108.982407 586.666321,116.142075 
	C587.859802,119.696930 597.543823,122.248756 599.957703,119.644432 
	C602.432617,116.974266 600.512939,109.372368 595.998901,107.208115 
M606.734375,61.256954 
	C604.136047,61.181969 601.870605,61.872025 602.033020,64.941193 
	C602.204224,68.177429 600.401855,72.387077 604.626465,74.157639 
	C607.607910,75.407204 611.287537,76.039246 614.186584,74.121147 
	C616.845398,72.361992 615.972534,69.038734 615.902954,66.287010 
	C615.753479,60.373306 611.261169,61.470676 606.734375,61.256954 
M617.837097,167.186569 
	C615.455322,170.321686 616.293152,173.799011 616.861145,177.201614 
	C617.289734,179.768906 619.362427,180.173798 621.426392,179.918320 
	C624.203796,179.574539 627.786743,181.226669 629.480042,177.744568 
	C632.730225,171.061111 629.171692,165.738266 621.916931,166.143814 
	C620.775940,166.207596 619.649353,166.528198 617.837097,167.186569 
M600.760254,82.858482 
	C600.322693,80.166443 599.886353,77.445641 596.331787,77.244606 
	C593.328186,77.074738 589.839478,74.666016 587.461670,77.751549 
	C585.110229,80.802948 586.204041,84.740974 587.852295,87.680069 
	C589.911743,91.352531 594.078674,90.098228 597.403015,89.817780 
	C601.083801,89.507263 600.716858,86.320801 600.760254,82.858482 
M638.635559,255.720596 
	C644.834839,255.175507 645.650879,253.740860 644.955627,246.234985 
	C644.622314,242.636734 642.394470,241.787582 639.548645,241.727798 
	C636.508667,241.663940 632.975586,240.837204 631.607544,244.974640 
	C629.959412,249.958939 632.620361,254.500732 638.635559,255.720596 
M696.336060,451.822266 
	C696.430542,455.780640 696.389282,459.749115 696.682312,463.692749 
	C696.809875,465.409943 697.169434,467.711426 699.701050,467.393616 
	C701.891174,467.118652 704.466736,467.101227 705.584778,464.489624 
	C707.302612,460.476868 705.404053,452.337952 701.971252,449.158051 
	C700.834900,448.105408 700.122375,445.990540 698.093994,446.720306 
	C696.206543,447.399353 696.456482,449.361511 696.336060,451.822266 
M637.604187,211.979324 
	C635.151978,212.119370 632.190491,211.665527 631.668640,215.060455 
	C631.166138,218.329910 630.851624,222.090866 633.709961,224.311722 
	C636.417969,226.415771 640.355713,226.730194 643.169434,224.880661 
	C646.607422,222.620850 645.067383,218.480011 644.744141,215.174423 
	C644.376221,211.412094 641.045410,212.144012 637.604187,211.979324 
M643.472839,181.724487 
	C641.375305,180.924835 639.204102,181.173523 637.081299,181.442490 
	C635.156555,181.686356 632.654297,181.694626 632.273315,184.137543 
	C631.772461,187.348572 630.981262,190.875610 633.146851,193.747726 
	C635.002380,196.208725 644.210205,195.345520 644.610291,192.745972 
	C645.144836,189.272507 646.622559,185.571869 643.472839,181.724487 
M629.741333,231.126602 
	C628.359375,225.562531 624.082458,226.589661 620.130798,226.925308 
	C616.781006,227.209824 616.148987,229.514435 616.437195,232.256989 
	C616.833801,236.030777 616.804626,239.890182 622.306213,240.404770 
	C628.791565,241.011368 630.051758,239.881790 629.741333,231.126602 
M617.200317,53.467831 
	C617.469482,55.637123 616.424438,58.257431 619.207886,59.578175 
	C625.744385,62.679737 630.300659,59.723892 630.009766,52.590416 
	C629.814514,47.801918 628.156982,46.476009 622.568970,46.424240 
	C618.297363,46.384666 616.541687,48.410599 617.200317,53.467831 
M625.303589,209.921219 
	C627.406921,209.883972 629.476929,209.562759 629.661682,206.963211 
	C629.878418,203.913727 630.867065,200.550491 628.175476,198.082794 
	C625.669006,195.784866 618.043640,196.863358 617.190674,199.430893 
	C615.164307,205.531265 618.067322,209.735916 625.303589,209.921219 
M226.449921,468.440063 
	C224.225891,475.886230 227.739227,481.145966 233.852295,486.014771 
	C233.915802,478.106171 235.890808,470.503387 233.890381,461.996887 
	C231.035583,464.270203 228.883636,465.983826 226.449921,468.440063 
M679.629639,689.095764 
	C682.846008,690.121887 686.548584,691.273132 688.940308,688.479980 
	C690.877625,686.217529 690.602478,682.574768 688.618164,680.074585 
	C686.239075,677.076660 682.559753,677.530884 679.351257,678.271423 
	C676.239441,678.989685 677.190430,681.937073 677.143433,684.146729 
	C677.107178,685.853394 677.618286,687.431274 679.629639,689.095764 
M451.786133,154.716721 
	C455.284698,157.683197 459.476990,158.060730 464.086548,158.239532 
	C464.498383,155.941544 465.342438,153.946136 463.838654,151.819839 
	C460.822906,152.036301 457.858978,152.100540 454.902283,151.531265 
	C452.950470,151.155472 451.059021,151.174240 451.786133,154.716721 
M652.664246,690.841125 
	C654.465698,690.786621 656.322144,690.991089 658.057068,690.622925 
	C661.516174,689.889038 660.677368,686.967590 660.665955,684.613831 
	C660.658752,683.128723 660.496033,681.574707 658.309448,681.647278 
	C654.619568,681.769592 651.209839,686.617065 652.664246,690.841125 
M674.756592,672.296936 
	C675.029541,670.441101 676.436951,668.625549 674.506042,665.995056 
	C671.620239,668.479004 667.213562,669.104675 666.678650,674.350830 
	C669.667603,675.064148 672.327698,675.686096 674.756592,672.296936 
M360.706085,274.233582 
	C360.977722,272.233307 362.615845,269.932922 359.952637,268.477142 
	C358.358276,267.605591 356.620453,268.074677 355.577606,269.660126 
	C354.565521,271.198730 353.620605,273.099915 355.019257,274.711243 
	C356.506042,276.424164 358.503571,276.373047 360.706085,274.233582 
z"/>
<path fill="#000000" opacity="1.000000" stroke="none" 
	d="
M664.458069,721.000000 
	C665.784973,717.817627 663.690979,715.149963 662.840088,712.321167 
	C662.278503,710.454163 661.678467,708.598694 661.057495,706.357117 
	C661.019348,705.976196 660.996521,706.001160 661.420654,706.019287 
	C666.570618,706.217712 671.297119,706.899536 676.021667,706.020142 
	C676.021667,706.020142 676.002563,706.001648 675.992554,705.991455 
	C675.637878,710.776794 671.148804,715.198486 674.843628,720.672058 
	C671.638733,721.000000 668.277405,721.000000 664.458069,721.000000 
z"/>
<path fill="#000000" opacity="1.000000" stroke="none" 
	d="
M217.449982,721.000000 
	C218.988022,715.404846 218.558334,714.138733 212.348312,707.958801 
	C216.362534,706.176086 220.183243,707.189270 224.302002,707.541077 
	C224.337906,712.017578 224.883118,716.240601 225.916351,720.702271 
	C223.299988,721.000000 220.599976,721.000000 217.449982,721.000000 
z"/>
<path fill="#000000" opacity="1.000000" stroke="none" 
	d="
M345.987091,29.173733 
	C349.292175,31.921881 353.044800,31.982267 356.590240,31.577101 
	C360.251099,31.158747 361.445190,32.684509 361.656006,35.861771 
	C361.733032,37.022858 361.978302,38.198235 361.871613,39.341400 
	C361.516541,43.144600 362.594574,46.151917 366.304840,47.580208 
	C366.180786,49.865902 365.023865,50.810364 362.986786,51.475372 
	C360.323669,45.178722 354.831329,47.080086 350.081909,47.123142 
	C346.506775,47.155552 346.779114,50.370918 346.537354,52.720997 
	C346.220398,55.801525 346.474243,58.937069 350.143524,60.029087 
	C352.193054,60.639057 354.388489,60.760040 356.518768,61.097412 
	C359.463806,61.563808 360.611145,63.195370 359.524506,66.036919 
	C358.755981,68.046623 358.044067,70.167046 356.820923,71.893806 
	C354.776001,74.780685 351.317322,75.249451 348.287964,74.799286 
	C344.978973,74.307587 346.390961,71.119286 346.339722,68.983871 
	C346.230652,64.437798 344.655151,61.626038 339.601349,60.775917 
	C331.738831,59.453327 331.593170,59.171864 331.123444,51.371300 
	C330.871185,47.182018 328.859772,46.040035 325.077850,45.977379 
	C321.352600,45.915672 316.405670,47.225636 316.853241,40.547348 
	C317.192322,35.487816 321.876984,31.692919 327.325867,32.235580 
	C331.082520,32.609707 330.844421,35.572205 331.133362,38.205093 
	C331.873291,44.946491 333.920654,46.462082 340.609253,45.671818 
	C343.570740,45.321911 345.012909,43.905796 345.435516,40.988289 
	C346.511200,33.561962 344.739197,31.146389 337.199249,30.005859 
	C336.427032,29.889048 335.695648,29.502439 334.934662,29.237320 
	C334.665710,26.406921 336.058746,24.665991 338.344360,24.351183 
	C341.795044,23.875912 344.476166,25.417763 345.987091,29.173733 
z"/>
<path fill="#000000" opacity="1.000000" stroke="none" 
	d="
M480.990875,690.990479 
	C480.992981,691.979492 480.992432,692.978210 481.017334,693.976318 
	C481.367554,708.026672 480.279480,704.088135 469.505676,705.376404 
	C467.460999,705.620850 466.469513,704.718933 466.290070,702.594543 
	C465.232574,690.074097 465.196014,690.067078 452.790863,690.984131 
	C452.460083,691.008606 452.125458,690.980896 451.396545,690.988281 
	C451.000458,690.999084 451.023315,691.020813 451.023315,691.020813 
	C451.309479,688.720459 451.604889,686.421143 451.880035,684.119507 
	C452.633057,677.819885 453.588196,677.106323 460.110779,676.879639 
	C463.272034,676.769775 465.153046,677.509399 465.410828,681.049561 
	C466.233551,692.348022 467.547913,690.541992 477.107910,691.024841 
	C478.100586,691.075012 479.097504,691.039978 480.555817,691.031372 
	C481.019165,691.018188 481.000061,691.000000 480.990875,690.990479 
z"/>
<path fill="#000000" opacity="1.000000" stroke="none" 
	d="
M735.985779,511.013123 
	C737.135620,511.031677 738.299255,511.021149 739.462280,511.044434 
	C751.058228,511.276489 751.002808,511.275238 750.418945,522.639709 
	C750.309937,524.761230 749.661194,525.765015 747.506470,525.591248 
	C746.844299,525.537842 746.178223,525.458374 745.516846,525.479614 
	C737.401184,525.740173 737.274048,525.831726 735.945984,533.760559 
	C735.432495,536.826416 734.416321,539.151001 730.637390,539.019165 
	C729.198853,538.968994 727.702271,539.495911 726.291870,539.946594 
	C723.266296,540.913391 721.814331,539.879761 721.850708,536.717224 
	C721.856445,536.218628 721.871704,535.720032 721.869934,535.221436 
	C721.838074,526.475769 721.832825,526.357239 730.616943,525.993774 
	C734.005493,525.853577 735.663086,524.669739 736.291199,521.197388 
	C736.875549,517.966736 736.303894,514.921265 736.033142,511.384888 
	C736.025818,510.972290 735.999329,510.999725 735.985779,511.013123 
z"/>
<path fill="#000000" opacity="1.000000" stroke="none" 
	d="
M571.012695,15.986982 
	C567.866455,15.986504 564.704041,16.101830 561.550232,15.983821 
	C557.791443,15.843172 555.969116,17.505064 556.024353,21.273174 
	C556.041382,22.434933 555.942383,23.599005 555.880859,24.761194 
	C555.604797,29.975561 554.805664,30.477938 549.796265,28.697756 
	C548.388123,28.197348 546.958801,27.715715 545.500854,27.404993 
	C542.623413,26.791733 541.866089,24.961105 542.091736,22.261297 
	C542.316284,19.575415 542.860413,17.292953 546.064209,16.832733 
	C547.709351,16.596413 549.331848,16.179296 550.981567,16.004028 
	C552.964050,15.793409 554.433289,15.082520 555.172302,13.067631 
	C556.195129,10.278688 557.837036,7.317010 561.153809,8.326133 
	C564.999023,9.496067 570.009460,9.748717 570.973083,15.649132 
	C570.975891,16.024597 571.000366,15.999475 571.012695,15.986982 
z"/>
<path fill="#000000" opacity="1.000000" stroke="none" 
	d="
M766.072388,526.076660 
	C765.355896,530.582092 764.871277,535.107056 765.437866,539.864685 
	C760.579773,540.264893 756.206299,540.625183 751.418396,540.993042 
	C751.003967,541.000549 751.031494,541.028503 751.031494,541.028503 
	C751.014648,537.584595 751.095764,534.136597 750.953186,530.697937 
	C750.812927,527.312866 752.344177,525.926819 755.649353,526.009705 
	C758.762573,526.087830 761.880981,525.957031 765.497009,525.959351 
	C765.996887,526.000549 766.072388,526.076660 766.072388,526.076660 
z"/>
<path fill="#000000" opacity="1.000000" stroke="none" 
	d="
M598.269531,345.825378 
	C601.147339,348.872833 601.435364,352.751007 603.122925,355.985809 
	C604.248169,358.142487 602.636841,359.000854 600.802979,359.321198 
	C599.069885,359.623932 597.696106,358.659882 597.218018,357.205292 
	C594.562073,349.123810 586.952576,344.267883 583.865662,336.480042 
	C583.399170,335.303040 581.919189,334.253479 583.251099,332.980682 
	C584.771729,331.527435 586.296570,332.396484 587.708923,333.465118 
	C592.037781,336.740295 594.135376,341.910919 598.269531,345.825378 
z"/>
<path fill="#000000" opacity="1.000000" stroke="none" 
	d="
M450.989685,690.987549 
	C450.746155,692.946838 450.474426,694.913879 450.287689,696.888977 
	C449.549103,704.700073 446.003326,707.621765 438.775391,704.862915 
	C433.753754,702.946228 437.936127,697.519592 436.558777,693.811646 
	C435.749023,691.631836 438.449371,690.979797 440.305511,691.222717 
	C443.633301,691.658203 446.905121,691.281433 450.610718,691.037476 
	C451.023315,691.020813 451.000458,690.999084 450.989685,690.987549 
z"/>
<path fill="#000000" opacity="1.000000" stroke="none" 
	d="
M241.028671,705.968262 
	C237.373520,706.129456 233.820786,704.631592 230.120712,705.313538 
	C229.517334,705.424744 228.581940,705.353394 228.233276,704.971191 
	C225.482651,701.956116 227.248718,698.342163 227.182419,695.003723 
	C227.137726,692.753723 229.090363,692.041199 231.087463,692.085144 
	C241.057373,692.304565 241.548355,693.603943 241.040131,705.558716 
	C240.998901,705.999451 241.028671,705.968262 241.028671,705.968262 
z"/>
<path fill="#000000" opacity="1.000000" stroke="none" 
	d="
M703.469727,389.690613 
	C702.388672,389.912109 701.729065,390.005035 701.067322,390.024078 
	C691.872253,390.289001 690.536926,388.889923 691.116272,379.628326 
	C691.178528,378.633362 691.084595,377.439514 692.020264,376.907776 
	C695.261536,375.065765 698.482666,376.737946 701.683716,377.229034 
	C703.974426,377.580444 705.166870,379.199219 705.092957,381.457550 
	C705.003906,384.178558 706.141846,387.120392 703.469727,389.690613 
z"/>
<path fill="#000000" opacity="1.000000" stroke="none" 
	d="
M706.763428,422.774292 
	C716.324158,419.972290 721.004700,424.395416 719.801575,435.008209 
	C716.422974,435.175110 712.976807,435.321411 709.533936,435.524231 
	C707.408325,435.649445 706.497253,434.748566 706.569824,432.588165 
	C706.675842,429.430084 706.622620,426.266663 706.763428,422.774292 
z"/>
<path fill="#000000" opacity="1.000000" stroke="none" 
	d="
M507.978851,704.445679 
	C507.260742,704.446289 506.933380,704.396240 506.604492,704.381531 
	C497.123596,703.956177 497.171906,703.958069 497.434082,694.520813 
	C497.483429,692.743591 497.987000,691.574524 499.762085,691.367432 
	C503.048309,690.984131 507.301575,690.240173 508.968964,693.098389 
	C510.873016,696.362427 511.639404,700.813538 507.978851,704.445679 
z"/>
<path fill="#000000" opacity="1.000000" stroke="none" 
	d="
M675.973511,285.977539 
	C674.288574,297.111755 671.381714,299.969971 661.767822,299.452026 
	C661.305847,295.299988 662.370605,290.943237 661.065857,286.383514 
	C661.022766,285.972473 661.000732,285.996277 660.988403,286.006531 
	C665.700317,287.537537 670.429077,286.117981 675.577393,286.019867 
	C675.998901,286.000916 675.973511,285.977539 675.973511,285.977539 
z"/>
<path fill="#000000" opacity="1.000000" stroke="none" 
	d="
M737.096191,484.627411 
	C737.883545,481.560059 739.720642,482.161896 741.493042,482.828552 
	C746.963806,484.886230 749.099182,489.205017 749.718079,494.908966 
	C746.115784,495.998108 742.660767,495.066956 739.276245,495.261902 
	C737.294006,495.376099 737.133240,493.553528 737.110535,492.003174 
	C737.076416,489.682343 737.078918,487.360962 737.096191,484.627411 
z"/>
<path fill="#000000" opacity="1.000000" stroke="none" 
	d="
M750.991211,540.985718 
	C750.735962,542.104126 750.479126,543.234436 750.253357,544.370972 
	C748.773315,551.820435 747.208191,553.084961 739.219116,553.267212 
	C739.031250,553.005310 738.708069,552.750305 738.687073,552.472473 
	C737.808655,540.822693 734.500427,542.666260 750.597290,541.028320 
	C751.031494,541.028503 751.003967,541.000549 750.991211,540.985718 
z"/>
<path fill="#000000" opacity="1.000000" stroke="none" 
	d="
M661.997620,326.482178 
	C662.155823,318.628723 663.040039,317.637482 668.569458,318.134949 
	C672.329773,318.473206 674.196533,320.121674 674.145081,324.123566 
	C674.092896,328.180603 671.967285,329.478851 668.465393,328.896484 
	C666.273926,328.532074 662.946350,331.369476 661.997620,326.482178 
z"/>
<path fill="#000000" opacity="1.000000" stroke="none" 
	d="
M706.002441,406.001221 
	C705.571838,410.240601 705.141174,414.479980 704.714844,418.676605 
	C702.433716,419.773865 700.659363,418.308868 698.882874,417.859131 
	C695.622986,417.033875 694.224670,414.325592 694.177917,411.107849 
	C694.129578,407.779480 696.872375,407.305023 699.286804,406.779663 
	C701.212952,406.360565 703.203247,406.236206 705.582520,405.990479 
	C706.000000,406.000000 706.002441,406.001221 706.002441,406.001221 
z"/>
<path fill="#000000" opacity="1.000000" stroke="none" 
	d="
M688.743408,375.131714 
	C685.126892,374.529968 682.111755,373.291321 679.742432,370.768372 
	C677.335449,368.205353 676.747375,365.071838 679.500610,362.958435 
	C682.101440,360.962006 685.644653,361.755798 687.311523,364.701050 
	C689.041992,367.758606 690.182007,371.301300 688.743408,375.131714 
z"/>
<path fill="#000000" opacity="1.000000" stroke="none" 
	d="
M616.009888,30.991028 
	C612.562622,30.952824 609.104492,30.965630 605.648499,30.884523 
	C602.072144,30.800589 601.596863,28.601809 602.500854,25.801533 
	C603.403503,23.005613 605.521423,21.533211 608.420227,21.335035 
	C611.575073,21.119356 613.729004,22.717283 615.182129,25.402370 
	C615.999939,26.913336 616.051208,28.553387 615.975769,30.617180 
	C615.980591,31.021000 616.000000,31.000784 616.009888,30.991028 
z"/>
<path fill="#000000" opacity="1.000000" stroke="none" 
	d="
M647.207031,306.774231 
	C645.616028,301.756439 647.722473,300.418060 651.772522,301.938934 
	C654.279663,302.880463 658.798645,300.784821 658.894958,305.889587 
	C658.946838,308.639008 658.182495,311.686584 655.260681,312.293854 
	C651.380676,313.100311 648.739075,310.742950 647.207031,306.774231 
z"/>
<path fill="#000000" opacity="1.000000" stroke="none" 
	d="
M756.932007,498.074310 
	C760.172668,500.216675 762.546936,502.670471 760.985168,506.438538 
	C759.390625,510.285767 755.497559,509.817047 751.797363,510.597992 
	C751.797363,505.926697 751.797363,501.615112 751.797363,497.371765 
	C753.695801,496.242920 755.119812,497.355621 756.932007,498.074310 
z"/>
<path fill="#000000" opacity="1.000000" stroke="none" 
	d="
M198.960739,698.848877 
	C199.050491,696.668213 197.969818,694.894775 198.788406,693.100037 
	C206.150742,692.612244 210.376236,696.970581 209.348831,704.557861 
	C205.144333,704.180969 200.736099,704.638184 198.960739,698.848877 
z"/>
<path fill="#000000" opacity="1.000000" stroke="none" 
	d="
M676.010559,286.013611 
	C676.863892,282.012482 677.705627,277.998688 678.485229,274.281067 
	C679.098450,274.009644 679.250916,273.881958 679.401001,273.884583 
	C682.697815,273.942963 686.296021,274.817657 687.259216,277.875183 
	C688.277466,281.107513 684.274475,282.103241 682.205200,283.771515 
	C680.668823,285.010101 678.764282,285.750031 676.346008,285.940765 
	C675.973511,285.977539 675.998901,286.000916 676.010559,286.013611 
z"/>
<path fill="#000000" opacity="1.000000" stroke="none" 
	d="
M344.162476,234.861786 
	C345.356232,237.795746 344.656189,239.261780 341.656372,239.485611 
	C338.755219,239.702103 335.854095,240.623108 332.712189,239.268784 
	C333.379761,235.663635 334.279602,232.215668 337.866669,230.818665 
	C341.066467,229.572479 342.523071,232.340134 344.162476,234.861786 
z"/>
<path fill="#000000" opacity="1.000000" stroke="none" 
	d="
M426.283325,682.228271 
	C428.143921,680.681152 429.788330,679.379395 431.794800,681.201477 
	C433.881195,683.096130 434.842621,685.587097 434.620575,688.339539 
	C434.503876,689.785645 433.097229,689.795959 431.859558,689.677368 
	C428.916992,689.395447 425.969360,689.165955 422.723724,688.889771 
	C421.696564,685.691711 424.370758,684.316833 426.283325,682.228271 
z"/>
<path fill="#000000" opacity="1.000000" stroke="none" 
	d="
M676.012085,196.015533 
	C676.457581,193.758621 676.676636,191.419861 677.373413,189.233353 
	C678.373291,186.096024 681.031982,185.707855 683.845886,186.094360 
	C685.782227,186.360321 687.509094,187.295761 687.547668,189.446777 
	C687.599304,192.322556 685.749573,193.966599 683.084412,194.624619 
	C681.000793,195.139038 678.870667,195.464691 676.366211,195.925171 
	C675.971191,195.976120 675.999084,196.001724 676.012085,196.015533 
z"/>
<path fill="#000000" opacity="1.000000" stroke="none" 
	d="
M677.145996,342.555359 
	C677.435608,340.411713 677.566223,338.571747 678.153442,336.891327 
	C678.850830,334.895294 680.676086,334.292511 682.594971,334.694519 
	C685.012939,335.201050 686.786377,336.713867 687.262817,339.219452 
	C687.664246,341.331055 685.940308,342.331818 684.382385,342.571655 
	C682.030457,342.933685 679.735413,346.709839 677.145996,342.555359 
z"/>
<path fill="#000000" opacity="1.000000" stroke="none" 
	d="
M240.983551,706.014587 
	C245.507126,706.525024 250.046051,707.020264 255.335693,707.597473 
	C252.979263,711.241760 250.868576,714.834290 247.640274,714.133362 
	C244.586365,713.470337 241.565994,710.677246 241.049774,706.329407 
	C241.028671,705.968262 240.998901,705.999451 240.983551,706.014587 
z"/>
<path fill="#000000" opacity="1.000000" stroke="none" 
	d="
M570.984497,60.981735 
	C571.185730,64.774742 569.564697,68.489075 570.432861,72.345093 
	C570.661316,73.359779 570.324097,74.402306 569.145691,74.703384 
	C568.074829,74.976997 567.142639,74.518623 566.647095,73.543831 
	C566.200623,72.665512 565.985352,71.673050 565.602783,70.758255 
	C562.385986,63.066433 562.381470,63.068317 570.645142,61.094738 
	C571.030884,61.024376 570.999512,60.996552 570.984497,60.981735 
z"/>
<path fill="#000000" opacity="1.000000" stroke="none" 
	d="
M184.187531,689.520386 
	C179.950516,686.964600 182.958405,684.566772 184.549835,683.147217 
	C186.891922,681.058105 189.946365,681.504639 192.045563,683.993225 
	C193.146027,685.297913 194.263992,686.929871 193.746902,689.525574 
	C190.722733,689.525574 187.638077,689.525574 184.187531,689.520386 
z"/>
<path fill="#000000" opacity="1.000000" stroke="none" 
	d="
M705.998779,405.999390 
	C705.864197,402.974701 706.512024,400.078705 707.583313,397.287201 
	C708.271362,395.494232 709.807617,394.971832 711.615173,395.105347 
	C713.185974,395.221344 714.552917,395.763733 715.250549,397.272736 
	C716.128784,399.172241 715.019531,400.452301 713.644104,401.488434 
	C711.449524,403.141815 709.901672,405.816925 706.365906,405.980957 
	C706.002441,406.001221 706.000000,406.000000 705.998779,405.999390 
z"/>
<path fill="#000000" opacity="1.000000" stroke="none" 
	d="
M260.206543,698.240479 
	C262.722626,696.365417 264.569122,697.765259 266.442871,698.760437 
	C267.657867,699.405823 268.701019,700.255798 268.432800,701.836731 
	C268.162140,703.432068 266.875610,703.829163 265.518707,704.048950 
	C264.541412,704.207275 263.557892,704.328430 262.575745,704.455139 
	C260.680939,704.699524 258.393188,705.778870 257.377228,703.257874 
	C256.464020,700.991699 258.190521,699.608032 260.206543,698.240479 
z"/>
<path fill="#000000" opacity="1.000000" stroke="none" 
	d="
M652.904541,38.785446 
	C654.730957,40.218079 656.476990,41.306675 656.325012,43.976830 
	C653.379272,45.195446 650.233337,46.502007 647.180908,44.757729 
	C645.675537,43.897511 646.581726,41.627689 647.142090,40.149391 
	C648.186829,37.393375 650.438110,38.014114 652.904541,38.785446 
z"/>
<path fill="#000000" opacity="1.000000" stroke="none" 
	d="
M178.392853,696.567383 
	C178.004745,700.535706 175.799866,701.861755 172.556290,701.156250 
	C170.393158,700.685791 170.150223,698.808838 170.617096,696.793213 
	C171.438919,693.244995 174.188950,692.723206 177.075195,692.825256 
	C179.446564,692.908997 178.622604,694.804688 178.392853,696.567383 
z"/>
<path fill="#000000" opacity="1.000000" stroke="none" 
	d="
M366.980103,25.016983 
	C370.159760,24.034235 373.147156,24.136955 373.368561,27.604828 
	C373.562256,30.639179 370.508118,30.709955 368.147675,30.540234 
	C366.384033,30.413424 364.553223,31.235483 362.591217,30.185438 
	C361.946381,26.888151 364.435791,26.130341 366.980103,25.016983 
z"/>
<path fill="#000000" opacity="1.000000" stroke="none" 
	d="
M459.760803,706.976440 
	C461.600159,707.168274 463.217010,706.649353 464.391083,708.282898 
	C463.992218,711.712280 459.026794,710.204956 458.700226,714.044434 
	C457.459045,710.791626 453.976288,710.960510 452.424866,708.474426 
	C454.434814,705.992371 457.083740,707.307312 459.760803,706.976440 
z"/>
<path fill="#000000" opacity="1.000000" stroke="none" 
	d="
M429.704346,706.992188 
	C431.527618,707.171753 433.183563,706.512451 434.274719,708.372314 
	C432.949707,710.809875 429.569855,710.650513 428.363708,713.964478 
	C426.567261,711.108276 423.348755,711.403320 422.332794,708.527893 
	C424.312988,706.043823 426.997131,707.345581 429.704346,706.992188 
z"/>
<path fill="#000000" opacity="1.000000" stroke="none" 
	d="
M771.650330,544.426453 
	C773.471741,546.066528 775.715515,547.407043 773.874817,549.883423 
	C772.785583,551.348816 770.794678,551.432556 769.343506,550.511902 
	C766.472046,548.690247 766.810120,545.927063 767.516113,543.243713 
	C769.279175,542.495789 770.234802,543.644043 771.650330,544.426453 
z"/>
<path fill="#000000" opacity="1.000000" stroke="none" 
	d="
M765.958496,525.963135 
	C766.077026,524.130981 766.104004,522.312134 766.431580,520.549133 
	C766.698181,519.113586 767.154724,517.532593 769.090027,517.519043 
	C770.461121,517.509460 771.734741,518.004272 772.422607,519.262817 
	C773.220276,520.722046 772.782593,522.151917 771.870117,523.420532 
	C770.639648,525.131226 768.931885,525.998291 766.447144,526.069824 
	C766.072388,526.076660 765.996887,526.000549 765.958496,525.963135 
z"/>
<path fill="#000000" opacity="1.000000" stroke="none" 
	d="
M724.299072,448.898193 
	C720.585266,447.941833 722.945374,445.675293 723.127747,443.970673 
	C723.299011,442.370728 724.437683,441.303192 726.207214,441.330719 
	C727.445679,441.349945 728.477661,441.910339 729.044189,443.027222 
	C729.672058,444.264893 729.108337,445.296204 728.146790,446.080444 
	C726.995361,447.019501 725.767578,447.864990 724.299072,448.898193 
z"/>
<path fill="#000000" opacity="1.000000" stroke="none" 
	d="
M631.008667,151.012192 
	C631.642273,147.689453 631.616943,144.039459 635.343567,142.229706 
	C636.250732,141.789169 637.178833,141.348450 638.014343,142.274643 
	C638.633057,142.960587 638.664856,143.864243 638.066772,144.510284 
	C636.035583,146.704269 635.398926,150.336548 631.323242,150.889130 
	C630.979919,150.986649 631.000000,151.002518 631.008667,151.012192 
z"/>
<path fill="#000000" opacity="1.000000" stroke="none" 
	d="
M599.907654,244.980743 
	C599.575928,247.678833 598.434753,249.120667 595.931458,248.693771 
	C594.375183,248.428375 594.073120,247.009964 593.779480,245.677948 
	C593.350952,243.733322 594.502197,242.997269 596.068970,242.496231 
	C598.106506,241.844604 599.728027,241.893768 599.907654,244.980743 
z"/>
<path fill="#000000" opacity="1.000000" stroke="none" 
	d="
M399.570496,710.799927 
	C397.065582,710.824280 394.897217,710.856201 393.535187,708.269531 
	C397.042725,706.329346 400.368866,707.130920 403.878357,707.707825 
	C403.354340,710.480408 401.293793,710.065125 399.570496,710.799927 
z"/>
<path fill="#000000" opacity="1.000000" stroke="none" 
	d="
M732.220337,557.614014 
	C736.412903,558.378601 733.705627,560.410095 733.107056,561.749817 
	C732.603394,562.877014 731.114685,563.160767 730.238708,562.104980 
	C728.360413,559.840942 729.975647,558.655396 732.220337,557.614014 
z"/>
<path fill="#000000" opacity="1.000000" stroke="none" 
	d="
M188.503387,444.179077 
	C189.467377,442.269196 190.709824,441.861694 192.020905,443.250977 
	C192.926270,444.210297 192.725708,445.497192 191.573547,446.129120 
	C189.917252,447.037537 188.833771,446.298553 188.503387,444.179077 
z"/>
<path fill="#000000" opacity="1.000000" stroke="none" 
	d="
M596.399170,323.866333 
	C593.656555,324.958954 592.504761,324.040741 590.973511,319.432007 
	C593.302002,320.489410 594.804810,322.052734 596.399170,323.866333 
z"/>
<path fill="#000000" opacity="1.000000" stroke="none" 
	d="
M601.171631,331.825928 
	C598.320435,331.834442 597.436279,330.341797 597.658508,327.593353 
	C600.723633,327.588074 601.494446,329.195129 601.171631,331.825928 
z"/>
<path fill="#000000" opacity="1.000000" stroke="none" 
	d="
M393.510986,223.510757 
	C386.778931,218.860306 380.708191,214.019775 376.296997,207.426041 
	C375.655853,206.467697 375.046143,205.422546 374.728882,204.328537 
	C374.237518,202.634140 374.411285,200.865509 376.101685,199.915436 
	C377.716400,199.007874 378.960327,200.192627 380.033264,201.255051 
	C383.342438,204.531555 386.503418,207.964783 389.912689,211.131821 
	C399.026550,219.598007 408.841888,225.980484 421.724274,228.503189 
	C429.918030,230.107758 436.848328,228.517212 443.994354,226.527039 
	C463.252106,221.163773 479.870392,211.054230 494.090515,196.982544 
	C496.077484,195.016296 498.799011,193.611893 501.215149,195.690460 
	C503.518707,197.672180 501.610901,200.105453 500.305176,201.915833 
	C495.610321,208.425201 488.717377,212.470551 482.207703,216.682343 
	C472.441925,223.000824 462.090576,228.474243 451.098846,232.411240 
	C430.518005,239.782913 411.260925,237.444641 393.510986,223.510757 
z"/>
<path fill="#000000" opacity="1.000000" stroke="none" 
	d="
M421.864777,176.064575 
	C419.613586,176.813660 417.766907,177.632492 415.833588,178.051682 
	C414.007233,178.447662 412.605560,177.430084 411.756348,175.819031 
	C410.769165,173.946198 411.750580,172.560608 413.188293,171.540878 
	C415.378632,169.987366 417.743195,168.743042 420.555328,168.830872 
	C422.896973,168.904007 425.678741,168.751099 426.242889,171.668121 
	C426.765686,174.371628 424.262543,175.152756 421.864777,176.064575 
z"/>
<path fill="#000000" opacity="1.000000" stroke="none" 
	d="
M455.730560,175.722015 
	C451.898621,178.184631 444.030212,176.986237 441.686432,173.821808 
	C440.343689,172.008942 440.827881,170.334930 442.805511,169.285019 
	C447.198364,166.952927 454.278412,170.279007 455.730560,175.722015 
z"/>
<path fill="#000000" opacity="1.000000" stroke="none" 
	d="
M481.004547,121.004410 
	C481.201416,119.361465 481.359650,117.709129 481.591705,116.067238 
	C482.853210,107.141891 482.870728,107.264992 491.520477,106.467690 
	C494.589050,106.184845 495.885712,107.224106 496.033051,110.156410 
	C496.108032,111.649025 496.320038,113.134346 496.451599,114.624596 
	C496.819336,118.789833 499.083008,120.669960 503.263245,121.010567 
	C509.290070,121.501625 513.002075,129.142319 509.459381,134.114441 
	C506.933533,137.659454 502.700165,135.796265 499.210876,135.855499 
	C496.353699,135.904007 496.478088,133.567368 496.569458,131.487762 
	C496.598297,130.831604 496.436371,130.166885 496.359894,129.506287 
	C495.394989,121.170654 495.024231,120.856453 486.409119,121.008347 
	C484.911713,121.034744 483.413788,121.032768 481.453369,121.017090 
	C480.990631,120.990280 481.000000,120.999855 481.004547,121.004410 
z"/>
</svg>